<mxfile host="app.diagrams.net" modified="2023-10-26T09:56:36.656Z" agent="Mozilla/5.0 (Windows NT 10.0; Win64; x64; rv:109.0) Gecko/20100101 Firefox/118.0" etag="oJfQZDw7YqOmHH4zdB4H" version="21.7.5" type="device">
  <diagram name="Side-1" id="RfROxsDxKCkLfhs2MqEh">
    <mxGraphModel dx="1750" dy="1000" grid="1" gridSize="10" guides="1" tooltips="1" connect="1" arrows="1" fold="1" page="1" pageScale="1" pageWidth="827" pageHeight="1169" math="0" shadow="0">
      <root>
        <mxCell id="0" />
        <mxCell id="1" parent="0" />
        <mxCell id="Kdk6xQ8fdx2JmgkRFjxR-17" style="edgeStyle=orthogonalEdgeStyle;rounded=0;orthogonalLoop=1;jettySize=auto;html=1;exitX=0.5;exitY=1;exitDx=0;exitDy=0;entryX=0.5;entryY=0;entryDx=0;entryDy=0;fontFamily=Helvetica;fontSize=12;fontColor=default;" edge="1" parent="1" source="Kdk6xQ8fdx2JmgkRFjxR-1" target="Kdk6xQ8fdx2JmgkRFjxR-3">
          <mxGeometry relative="1" as="geometry" />
        </mxCell>
        <mxCell id="Kdk6xQ8fdx2JmgkRFjxR-1" value="Prog" style="rounded=1;whiteSpace=wrap;html=1;" vertex="1" parent="1">
          <mxGeometry x="240" y="80" width="120" height="40" as="geometry" />
        </mxCell>
        <mxCell id="Kdk6xQ8fdx2JmgkRFjxR-16" style="edgeStyle=orthogonalEdgeStyle;rounded=0;orthogonalLoop=1;jettySize=auto;html=1;exitX=0.5;exitY=1;exitDx=0;exitDy=0;entryX=0.5;entryY=0;entryDx=0;entryDy=0;fontFamily=Helvetica;fontSize=12;fontColor=default;" edge="1" parent="1" source="Kdk6xQ8fdx2JmgkRFjxR-3" target="Kdk6xQ8fdx2JmgkRFjxR-8">
          <mxGeometry relative="1" as="geometry" />
        </mxCell>
        <mxCell id="Kdk6xQ8fdx2JmgkRFjxR-18" style="edgeStyle=orthogonalEdgeStyle;rounded=0;orthogonalLoop=1;jettySize=auto;html=1;exitX=0.5;exitY=1;exitDx=0;exitDy=0;entryX=0.5;entryY=0;entryDx=0;entryDy=0;fontFamily=Helvetica;fontSize=12;fontColor=default;" edge="1" parent="1" source="Kdk6xQ8fdx2JmgkRFjxR-3" target="Kdk6xQ8fdx2JmgkRFjxR-9">
          <mxGeometry relative="1" as="geometry" />
        </mxCell>
        <mxCell id="Kdk6xQ8fdx2JmgkRFjxR-19" style="edgeStyle=orthogonalEdgeStyle;rounded=0;orthogonalLoop=1;jettySize=auto;html=1;exitX=0.5;exitY=1;exitDx=0;exitDy=0;entryX=0.5;entryY=0;entryDx=0;entryDy=0;fontFamily=Helvetica;fontSize=12;fontColor=default;" edge="1" parent="1" source="Kdk6xQ8fdx2JmgkRFjxR-3" target="Kdk6xQ8fdx2JmgkRFjxR-10">
          <mxGeometry relative="1" as="geometry" />
        </mxCell>
        <mxCell id="Kdk6xQ8fdx2JmgkRFjxR-22" style="edgeStyle=orthogonalEdgeStyle;rounded=0;orthogonalLoop=1;jettySize=auto;html=1;exitX=0.5;exitY=1;exitDx=0;exitDy=0;entryX=0.5;entryY=0;entryDx=0;entryDy=0;fontFamily=Helvetica;fontSize=12;fontColor=default;" edge="1" parent="1" source="Kdk6xQ8fdx2JmgkRFjxR-3" target="Kdk6xQ8fdx2JmgkRFjxR-4">
          <mxGeometry relative="1" as="geometry" />
        </mxCell>
        <mxCell id="Kdk6xQ8fdx2JmgkRFjxR-23" style="edgeStyle=orthogonalEdgeStyle;rounded=0;orthogonalLoop=1;jettySize=auto;html=1;exitX=0.5;exitY=1;exitDx=0;exitDy=0;entryX=0.5;entryY=0;entryDx=0;entryDy=0;fontFamily=Helvetica;fontSize=12;fontColor=default;" edge="1" parent="1" source="Kdk6xQ8fdx2JmgkRFjxR-3" target="Kdk6xQ8fdx2JmgkRFjxR-15">
          <mxGeometry relative="1" as="geometry" />
        </mxCell>
        <mxCell id="Kdk6xQ8fdx2JmgkRFjxR-3" value="Fundec&lt;i&gt;&lt;br&gt;&lt;/i&gt;" style="rounded=1;whiteSpace=wrap;html=1;fillColor=#dae8fc;strokeColor=#6c8ebf;" vertex="1" parent="1">
          <mxGeometry x="230" y="160" width="140" height="40" as="geometry" />
        </mxCell>
        <mxCell id="Kdk6xQ8fdx2JmgkRFjxR-24" style="edgeStyle=orthogonalEdgeStyle;rounded=0;orthogonalLoop=1;jettySize=auto;html=1;exitX=0.5;exitY=1;exitDx=0;exitDy=0;entryX=0.5;entryY=0;entryDx=0;entryDy=0;fontFamily=Helvetica;fontSize=12;fontColor=default;" edge="1" parent="1" source="Kdk6xQ8fdx2JmgkRFjxR-4" target="Kdk6xQ8fdx2JmgkRFjxR-5">
          <mxGeometry relative="1" as="geometry" />
        </mxCell>
        <mxCell id="Kdk6xQ8fdx2JmgkRFjxR-4" value="Stmt" style="rounded=1;whiteSpace=wrap;html=1;" vertex="1" parent="1">
          <mxGeometry x="320" y="240" width="40" height="40" as="geometry" />
        </mxCell>
        <mxCell id="Kdk6xQ8fdx2JmgkRFjxR-26" style="edgeStyle=orthogonalEdgeStyle;rounded=0;orthogonalLoop=1;jettySize=auto;html=1;exitX=0.5;exitY=1;exitDx=0;exitDy=0;entryX=0.5;entryY=0;entryDx=0;entryDy=0;fontFamily=Helvetica;fontSize=12;fontColor=default;" edge="1" parent="1" source="Kdk6xQ8fdx2JmgkRFjxR-5" target="Kdk6xQ8fdx2JmgkRFjxR-6">
          <mxGeometry relative="1" as="geometry" />
        </mxCell>
        <mxCell id="Kdk6xQ8fdx2JmgkRFjxR-27" style="edgeStyle=orthogonalEdgeStyle;rounded=0;orthogonalLoop=1;jettySize=auto;html=1;exitX=0.5;exitY=1;exitDx=0;exitDy=0;entryX=0.5;entryY=0;entryDx=0;entryDy=0;fontFamily=Helvetica;fontSize=12;fontColor=default;" edge="1" parent="1" source="Kdk6xQ8fdx2JmgkRFjxR-5" target="Kdk6xQ8fdx2JmgkRFjxR-25">
          <mxGeometry relative="1" as="geometry" />
        </mxCell>
        <mxCell id="Kdk6xQ8fdx2JmgkRFjxR-5" value="While" style="rounded=1;whiteSpace=wrap;html=1;fillColor=#f8cecc;strokeColor=#b85450;" vertex="1" parent="1">
          <mxGeometry x="320" y="320" width="40" height="40" as="geometry" />
        </mxCell>
        <mxCell id="Kdk6xQ8fdx2JmgkRFjxR-32" style="edgeStyle=orthogonalEdgeStyle;rounded=0;orthogonalLoop=1;jettySize=auto;html=1;exitX=0.5;exitY=1;exitDx=0;exitDy=0;entryX=0.5;entryY=0;entryDx=0;entryDy=0;fontFamily=Helvetica;fontSize=12;fontColor=default;" edge="1" parent="1" source="Kdk6xQ8fdx2JmgkRFjxR-6" target="Kdk6xQ8fdx2JmgkRFjxR-30">
          <mxGeometry relative="1" as="geometry" />
        </mxCell>
        <mxCell id="Kdk6xQ8fdx2JmgkRFjxR-33" style="edgeStyle=orthogonalEdgeStyle;rounded=0;orthogonalLoop=1;jettySize=auto;html=1;exitX=0.5;exitY=1;exitDx=0;exitDy=0;entryX=0.5;entryY=0;entryDx=0;entryDy=0;fontFamily=Helvetica;fontSize=12;fontColor=default;" edge="1" parent="1" source="Kdk6xQ8fdx2JmgkRFjxR-6" target="Kdk6xQ8fdx2JmgkRFjxR-29">
          <mxGeometry relative="1" as="geometry" />
        </mxCell>
        <mxCell id="Kdk6xQ8fdx2JmgkRFjxR-34" style="edgeStyle=orthogonalEdgeStyle;rounded=0;orthogonalLoop=1;jettySize=auto;html=1;exitX=0.5;exitY=1;exitDx=0;exitDy=0;entryX=0.5;entryY=0;entryDx=0;entryDy=0;fontFamily=Helvetica;fontSize=12;fontColor=default;" edge="1" parent="1" source="Kdk6xQ8fdx2JmgkRFjxR-6" target="Kdk6xQ8fdx2JmgkRFjxR-28">
          <mxGeometry relative="1" as="geometry" />
        </mxCell>
        <mxCell id="Kdk6xQ8fdx2JmgkRFjxR-6" value="Prim2" style="rounded=1;whiteSpace=wrap;html=1;fillColor=#d5e8d4;strokeColor=#82b366;" vertex="1" parent="1">
          <mxGeometry x="250" y="400" width="80" height="40" as="geometry" />
        </mxCell>
        <mxCell id="Kdk6xQ8fdx2JmgkRFjxR-8" value="None" style="rounded=1;whiteSpace=wrap;html=1;fillColor=#fff2cc;strokeColor=#d6b656;" vertex="1" parent="1">
          <mxGeometry x="100" y="240" width="40" height="40" as="geometry" />
        </mxCell>
        <mxCell id="Kdk6xQ8fdx2JmgkRFjxR-9" value="&quot;main&quot;" style="rounded=1;whiteSpace=wrap;html=1;fillColor=#f5f5f5;fontColor=#333333;strokeColor=#666666;" vertex="1" parent="1">
          <mxGeometry x="160" y="240" width="40" height="40" as="geometry" />
        </mxCell>
        <mxCell id="Kdk6xQ8fdx2JmgkRFjxR-20" style="edgeStyle=orthogonalEdgeStyle;rounded=0;orthogonalLoop=1;jettySize=auto;html=1;exitX=0.5;exitY=1;exitDx=0;exitDy=0;entryX=0.5;entryY=0;entryDx=0;entryDy=0;fontFamily=Helvetica;fontSize=12;fontColor=default;" edge="1" parent="1" source="Kdk6xQ8fdx2JmgkRFjxR-10" target="Kdk6xQ8fdx2JmgkRFjxR-13">
          <mxGeometry relative="1" as="geometry" />
        </mxCell>
        <mxCell id="Kdk6xQ8fdx2JmgkRFjxR-21" style="edgeStyle=orthogonalEdgeStyle;rounded=0;orthogonalLoop=1;jettySize=auto;html=1;exitX=0.5;exitY=1;exitDx=0;exitDy=0;entryX=0.5;entryY=0;entryDx=0;entryDy=0;fontFamily=Helvetica;fontSize=12;fontColor=default;" edge="1" parent="1" source="Kdk6xQ8fdx2JmgkRFjxR-10" target="Kdk6xQ8fdx2JmgkRFjxR-11">
          <mxGeometry relative="1" as="geometry" />
        </mxCell>
        <mxCell id="Kdk6xQ8fdx2JmgkRFjxR-10" value="" style="rounded=1;whiteSpace=wrap;html=1;" vertex="1" parent="1">
          <mxGeometry x="230" y="240" width="40" height="40" as="geometry" />
        </mxCell>
        <mxCell id="Kdk6xQ8fdx2JmgkRFjxR-11" value="TypI" style="rounded=1;whiteSpace=wrap;html=1;fillColor=#fff2cc;strokeColor=#d6b656;" vertex="1" parent="1">
          <mxGeometry x="200" y="320" width="40" height="40" as="geometry" />
        </mxCell>
        <mxCell id="Kdk6xQ8fdx2JmgkRFjxR-13" value="&quot;n&quot;" style="rounded=1;whiteSpace=wrap;html=1;fillColor=#f5f5f5;fontColor=#333333;strokeColor=#666666;" vertex="1" parent="1">
          <mxGeometry x="260" y="320" width="40" height="40" as="geometry" />
        </mxCell>
        <mxCell id="Kdk6xQ8fdx2JmgkRFjxR-90" style="edgeStyle=orthogonalEdgeStyle;rounded=0;orthogonalLoop=1;jettySize=auto;html=1;exitX=0.5;exitY=1;exitDx=0;exitDy=0;entryX=0.5;entryY=0;entryDx=0;entryDy=0;fontFamily=Helvetica;fontSize=12;fontColor=default;" edge="1" parent="1" source="Kdk6xQ8fdx2JmgkRFjxR-14" target="Kdk6xQ8fdx2JmgkRFjxR-84">
          <mxGeometry relative="1" as="geometry" />
        </mxCell>
        <mxCell id="Kdk6xQ8fdx2JmgkRFjxR-14" value="Expr" style="rounded=1;whiteSpace=wrap;html=1;fillColor=#f8cecc;strokeColor=#b85450;" vertex="1" parent="1">
          <mxGeometry x="470" y="320" width="40" height="40" as="geometry" />
        </mxCell>
        <mxCell id="Kdk6xQ8fdx2JmgkRFjxR-82" style="edgeStyle=orthogonalEdgeStyle;rounded=0;orthogonalLoop=1;jettySize=auto;html=1;exitX=0.5;exitY=1;exitDx=0;exitDy=0;entryX=0.5;entryY=0;entryDx=0;entryDy=0;fontFamily=Helvetica;fontSize=12;fontColor=default;" edge="1" parent="1" source="Kdk6xQ8fdx2JmgkRFjxR-15" target="Kdk6xQ8fdx2JmgkRFjxR-14">
          <mxGeometry relative="1" as="geometry" />
        </mxCell>
        <mxCell id="Kdk6xQ8fdx2JmgkRFjxR-15" value="Stmt" style="rounded=1;whiteSpace=wrap;html=1;" vertex="1" parent="1">
          <mxGeometry x="470" y="240" width="40" height="40" as="geometry" />
        </mxCell>
        <mxCell id="Kdk6xQ8fdx2JmgkRFjxR-43" style="edgeStyle=orthogonalEdgeStyle;rounded=0;orthogonalLoop=1;jettySize=auto;html=1;exitX=0.5;exitY=1;exitDx=0;exitDy=0;entryX=0.5;entryY=0;entryDx=0;entryDy=0;fontFamily=Helvetica;fontSize=12;fontColor=default;" edge="1" parent="1" source="Kdk6xQ8fdx2JmgkRFjxR-25" target="Kdk6xQ8fdx2JmgkRFjxR-42">
          <mxGeometry relative="1" as="geometry" />
        </mxCell>
        <mxCell id="Kdk6xQ8fdx2JmgkRFjxR-57" style="edgeStyle=orthogonalEdgeStyle;rounded=0;orthogonalLoop=1;jettySize=auto;html=1;exitX=0.5;exitY=1;exitDx=0;exitDy=0;entryX=0.5;entryY=0;entryDx=0;entryDy=0;fontFamily=Helvetica;fontSize=12;fontColor=default;" edge="1" parent="1" source="Kdk6xQ8fdx2JmgkRFjxR-25" target="Kdk6xQ8fdx2JmgkRFjxR-56">
          <mxGeometry relative="1" as="geometry" />
        </mxCell>
        <mxCell id="Kdk6xQ8fdx2JmgkRFjxR-25" value="Block" style="rounded=1;whiteSpace=wrap;html=1;fillColor=#f8cecc;strokeColor=#b85450;" vertex="1" parent="1">
          <mxGeometry x="350" y="400" width="40" height="40" as="geometry" />
        </mxCell>
        <mxCell id="Kdk6xQ8fdx2JmgkRFjxR-28" value="&quot;&amp;gt;&quot;" style="rounded=1;whiteSpace=wrap;html=1;fillColor=#f5f5f5;fontColor=#333333;strokeColor=#666666;" vertex="1" parent="1">
          <mxGeometry x="130" y="480" width="40" height="40" as="geometry" />
        </mxCell>
        <mxCell id="Kdk6xQ8fdx2JmgkRFjxR-38" style="edgeStyle=orthogonalEdgeStyle;rounded=0;orthogonalLoop=1;jettySize=auto;html=1;exitX=0.5;exitY=1;exitDx=0;exitDy=0;entryX=0.5;entryY=0;entryDx=0;entryDy=0;fontFamily=Helvetica;fontSize=12;fontColor=default;" edge="1" parent="1" source="Kdk6xQ8fdx2JmgkRFjxR-29" target="Kdk6xQ8fdx2JmgkRFjxR-36">
          <mxGeometry relative="1" as="geometry" />
        </mxCell>
        <mxCell id="Kdk6xQ8fdx2JmgkRFjxR-29" value="Access" style="rounded=1;whiteSpace=wrap;html=1;fillColor=#d5e8d4;strokeColor=#82b366;" vertex="1" parent="1">
          <mxGeometry x="190" y="480" width="80" height="40" as="geometry" />
        </mxCell>
        <mxCell id="Kdk6xQ8fdx2JmgkRFjxR-35" style="edgeStyle=orthogonalEdgeStyle;rounded=0;orthogonalLoop=1;jettySize=auto;html=1;exitX=0.5;exitY=1;exitDx=0;exitDy=0;entryX=0.5;entryY=0;entryDx=0;entryDy=0;fontFamily=Helvetica;fontSize=12;fontColor=default;" edge="1" parent="1" source="Kdk6xQ8fdx2JmgkRFjxR-30" target="Kdk6xQ8fdx2JmgkRFjxR-31">
          <mxGeometry relative="1" as="geometry" />
        </mxCell>
        <mxCell id="Kdk6xQ8fdx2JmgkRFjxR-30" value="CstI" style="rounded=1;whiteSpace=wrap;html=1;fillColor=#d5e8d4;strokeColor=#82b366;" vertex="1" parent="1">
          <mxGeometry x="290" y="480" width="40" height="40" as="geometry" />
        </mxCell>
        <mxCell id="Kdk6xQ8fdx2JmgkRFjxR-31" value="0" style="rounded=1;whiteSpace=wrap;html=1;fillColor=#f5f5f5;strokeColor=#666666;fontColor=#333333;" vertex="1" parent="1">
          <mxGeometry x="290" y="560" width="40" height="40" as="geometry" />
        </mxCell>
        <mxCell id="Kdk6xQ8fdx2JmgkRFjxR-39" style="edgeStyle=orthogonalEdgeStyle;rounded=0;orthogonalLoop=1;jettySize=auto;html=1;exitX=0.5;exitY=1;exitDx=0;exitDy=0;entryX=0.5;entryY=0;entryDx=0;entryDy=0;fontFamily=Helvetica;fontSize=12;fontColor=default;" edge="1" parent="1" source="Kdk6xQ8fdx2JmgkRFjxR-36" target="Kdk6xQ8fdx2JmgkRFjxR-37">
          <mxGeometry relative="1" as="geometry" />
        </mxCell>
        <mxCell id="Kdk6xQ8fdx2JmgkRFjxR-36" value="AccVar" style="rounded=1;whiteSpace=wrap;html=1;" vertex="1" parent="1">
          <mxGeometry x="190" y="560" width="80" height="40" as="geometry" />
        </mxCell>
        <mxCell id="Kdk6xQ8fdx2JmgkRFjxR-37" value="&quot;n&quot;" style="rounded=1;whiteSpace=wrap;html=1;fillColor=#f5f5f5;fontColor=#333333;strokeColor=#666666;" vertex="1" parent="1">
          <mxGeometry x="210" y="640" width="40" height="40" as="geometry" />
        </mxCell>
        <mxCell id="Kdk6xQ8fdx2JmgkRFjxR-45" style="edgeStyle=orthogonalEdgeStyle;rounded=0;orthogonalLoop=1;jettySize=auto;html=1;exitX=0.5;exitY=1;exitDx=0;exitDy=0;entryX=0.5;entryY=0;entryDx=0;entryDy=0;fontFamily=Helvetica;fontSize=12;fontColor=default;" edge="1" parent="1" source="Kdk6xQ8fdx2JmgkRFjxR-42" target="Kdk6xQ8fdx2JmgkRFjxR-44">
          <mxGeometry relative="1" as="geometry" />
        </mxCell>
        <mxCell id="Kdk6xQ8fdx2JmgkRFjxR-42" value="Stmt" style="rounded=1;whiteSpace=wrap;html=1;" vertex="1" parent="1">
          <mxGeometry x="350" y="480" width="40" height="40" as="geometry" />
        </mxCell>
        <mxCell id="Kdk6xQ8fdx2JmgkRFjxR-47" style="edgeStyle=orthogonalEdgeStyle;rounded=0;orthogonalLoop=1;jettySize=auto;html=1;exitX=0.5;exitY=1;exitDx=0;exitDy=0;entryX=0.5;entryY=0;entryDx=0;entryDy=0;fontFamily=Helvetica;fontSize=12;fontColor=default;" edge="1" parent="1" source="Kdk6xQ8fdx2JmgkRFjxR-44" target="Kdk6xQ8fdx2JmgkRFjxR-46">
          <mxGeometry relative="1" as="geometry" />
        </mxCell>
        <mxCell id="Kdk6xQ8fdx2JmgkRFjxR-44" value="Expr" style="rounded=1;whiteSpace=wrap;html=1;fillColor=#f8cecc;strokeColor=#b85450;" vertex="1" parent="1">
          <mxGeometry x="350" y="560" width="40" height="40" as="geometry" />
        </mxCell>
        <mxCell id="Kdk6xQ8fdx2JmgkRFjxR-50" style="edgeStyle=orthogonalEdgeStyle;rounded=0;orthogonalLoop=1;jettySize=auto;html=1;exitX=0.5;exitY=1;exitDx=0;exitDy=0;entryX=0.5;entryY=0;entryDx=0;entryDy=0;fontFamily=Helvetica;fontSize=12;fontColor=default;" edge="1" parent="1" source="Kdk6xQ8fdx2JmgkRFjxR-46" target="Kdk6xQ8fdx2JmgkRFjxR-48">
          <mxGeometry relative="1" as="geometry" />
        </mxCell>
        <mxCell id="Kdk6xQ8fdx2JmgkRFjxR-51" style="edgeStyle=orthogonalEdgeStyle;rounded=0;orthogonalLoop=1;jettySize=auto;html=1;exitX=0.5;exitY=1;exitDx=0;exitDy=0;entryX=0.5;entryY=0;entryDx=0;entryDy=0;fontFamily=Helvetica;fontSize=12;fontColor=default;" edge="1" parent="1" source="Kdk6xQ8fdx2JmgkRFjxR-46" target="Kdk6xQ8fdx2JmgkRFjxR-49">
          <mxGeometry relative="1" as="geometry" />
        </mxCell>
        <mxCell id="Kdk6xQ8fdx2JmgkRFjxR-46" value="Prim1" style="rounded=1;whiteSpace=wrap;html=1;fillColor=#d5e8d4;strokeColor=#82b366;" vertex="1" parent="1">
          <mxGeometry x="350" y="640" width="40" height="40" as="geometry" />
        </mxCell>
        <mxCell id="Kdk6xQ8fdx2JmgkRFjxR-48" value="&quot;printi&quot;" style="rounded=1;whiteSpace=wrap;html=1;fillColor=#f5f5f5;strokeColor=#666666;fontColor=#333333;" vertex="1" parent="1">
          <mxGeometry x="250" y="720" width="40" height="40" as="geometry" />
        </mxCell>
        <mxCell id="Kdk6xQ8fdx2JmgkRFjxR-54" style="edgeStyle=orthogonalEdgeStyle;rounded=0;orthogonalLoop=1;jettySize=auto;html=1;exitX=0.5;exitY=1;exitDx=0;exitDy=0;entryX=0.5;entryY=0;entryDx=0;entryDy=0;fontFamily=Helvetica;fontSize=12;fontColor=default;" edge="1" parent="1" source="Kdk6xQ8fdx2JmgkRFjxR-49" target="Kdk6xQ8fdx2JmgkRFjxR-52">
          <mxGeometry relative="1" as="geometry" />
        </mxCell>
        <mxCell id="Kdk6xQ8fdx2JmgkRFjxR-49" value="Access" style="rounded=1;whiteSpace=wrap;html=1;fillColor=#d5e8d4;strokeColor=#82b366;" vertex="1" parent="1">
          <mxGeometry x="310" y="720" width="80" height="40" as="geometry" />
        </mxCell>
        <mxCell id="Kdk6xQ8fdx2JmgkRFjxR-55" style="edgeStyle=orthogonalEdgeStyle;rounded=0;orthogonalLoop=1;jettySize=auto;html=1;exitX=0.5;exitY=1;exitDx=0;exitDy=0;entryX=0.5;entryY=0;entryDx=0;entryDy=0;fontFamily=Helvetica;fontSize=12;fontColor=default;" edge="1" parent="1" source="Kdk6xQ8fdx2JmgkRFjxR-52" target="Kdk6xQ8fdx2JmgkRFjxR-53">
          <mxGeometry relative="1" as="geometry" />
        </mxCell>
        <mxCell id="Kdk6xQ8fdx2JmgkRFjxR-52" value="AccVar" style="rounded=1;whiteSpace=wrap;html=1;" vertex="1" parent="1">
          <mxGeometry x="310" y="800" width="80" height="40" as="geometry" />
        </mxCell>
        <mxCell id="Kdk6xQ8fdx2JmgkRFjxR-53" value="&quot;n&quot;" style="rounded=1;whiteSpace=wrap;html=1;fillColor=#f5f5f5;fontColor=#333333;strokeColor=#666666;" vertex="1" parent="1">
          <mxGeometry x="330" y="880" width="40" height="40" as="geometry" />
        </mxCell>
        <mxCell id="Kdk6xQ8fdx2JmgkRFjxR-61" style="edgeStyle=orthogonalEdgeStyle;rounded=0;orthogonalLoop=1;jettySize=auto;html=1;exitX=0.5;exitY=1;exitDx=0;exitDy=0;entryX=0.5;entryY=0;entryDx=0;entryDy=0;fontFamily=Helvetica;fontSize=12;fontColor=default;" edge="1" parent="1" source="Kdk6xQ8fdx2JmgkRFjxR-56" target="Kdk6xQ8fdx2JmgkRFjxR-59">
          <mxGeometry relative="1" as="geometry" />
        </mxCell>
        <mxCell id="Kdk6xQ8fdx2JmgkRFjxR-56" value="Stmt" style="rounded=1;whiteSpace=wrap;html=1;" vertex="1" parent="1">
          <mxGeometry x="410" y="480" width="40" height="40" as="geometry" />
        </mxCell>
        <mxCell id="Kdk6xQ8fdx2JmgkRFjxR-67" style="edgeStyle=orthogonalEdgeStyle;rounded=0;orthogonalLoop=1;jettySize=auto;html=1;exitX=0.5;exitY=1;exitDx=0;exitDy=0;entryX=0.5;entryY=0;entryDx=0;entryDy=0;fontFamily=Helvetica;fontSize=12;fontColor=default;" edge="1" parent="1" source="Kdk6xQ8fdx2JmgkRFjxR-59" target="Kdk6xQ8fdx2JmgkRFjxR-62">
          <mxGeometry relative="1" as="geometry" />
        </mxCell>
        <mxCell id="Kdk6xQ8fdx2JmgkRFjxR-59" value="Expr" style="rounded=1;whiteSpace=wrap;html=1;fillColor=#f8cecc;strokeColor=#b85450;" vertex="1" parent="1">
          <mxGeometry x="410" y="560" width="40" height="40" as="geometry" />
        </mxCell>
        <mxCell id="Kdk6xQ8fdx2JmgkRFjxR-66" style="edgeStyle=orthogonalEdgeStyle;rounded=0;orthogonalLoop=1;jettySize=auto;html=1;exitX=0.5;exitY=1;exitDx=0;exitDy=0;entryX=0.5;entryY=0;entryDx=0;entryDy=0;fontFamily=Helvetica;fontSize=12;fontColor=default;" edge="1" parent="1" source="Kdk6xQ8fdx2JmgkRFjxR-62" target="Kdk6xQ8fdx2JmgkRFjxR-64">
          <mxGeometry relative="1" as="geometry" />
        </mxCell>
        <mxCell id="Kdk6xQ8fdx2JmgkRFjxR-69" style="edgeStyle=orthogonalEdgeStyle;rounded=0;orthogonalLoop=1;jettySize=auto;html=1;exitX=0.5;exitY=1;exitDx=0;exitDy=0;entryX=0.5;entryY=0;entryDx=0;entryDy=0;fontFamily=Helvetica;fontSize=12;fontColor=default;" edge="1" parent="1" source="Kdk6xQ8fdx2JmgkRFjxR-62" target="Kdk6xQ8fdx2JmgkRFjxR-68">
          <mxGeometry relative="1" as="geometry" />
        </mxCell>
        <mxCell id="Kdk6xQ8fdx2JmgkRFjxR-62" value="Assign" style="rounded=1;whiteSpace=wrap;html=1;fillColor=#d5e8d4;strokeColor=#82b366;" vertex="1" parent="1">
          <mxGeometry x="410" y="640" width="40" height="40" as="geometry" />
        </mxCell>
        <mxCell id="Kdk6xQ8fdx2JmgkRFjxR-63" style="edgeStyle=orthogonalEdgeStyle;rounded=0;orthogonalLoop=1;jettySize=auto;html=1;exitX=0.5;exitY=1;exitDx=0;exitDy=0;entryX=0.5;entryY=0;entryDx=0;entryDy=0;fontFamily=Helvetica;fontSize=12;fontColor=default;" edge="1" parent="1" source="Kdk6xQ8fdx2JmgkRFjxR-64" target="Kdk6xQ8fdx2JmgkRFjxR-65">
          <mxGeometry relative="1" as="geometry" />
        </mxCell>
        <mxCell id="Kdk6xQ8fdx2JmgkRFjxR-64" value="AccVar" style="rounded=1;whiteSpace=wrap;html=1;" vertex="1" parent="1">
          <mxGeometry x="410" y="720" width="80" height="40" as="geometry" />
        </mxCell>
        <mxCell id="Kdk6xQ8fdx2JmgkRFjxR-65" value="&quot;n&quot;" style="rounded=1;whiteSpace=wrap;html=1;fillColor=#f5f5f5;fontColor=#333333;strokeColor=#666666;" vertex="1" parent="1">
          <mxGeometry x="430" y="800" width="40" height="40" as="geometry" />
        </mxCell>
        <mxCell id="Kdk6xQ8fdx2JmgkRFjxR-79" style="edgeStyle=orthogonalEdgeStyle;rounded=0;orthogonalLoop=1;jettySize=auto;html=1;exitX=0.5;exitY=1;exitDx=0;exitDy=0;entryX=0.5;entryY=0;entryDx=0;entryDy=0;fontFamily=Helvetica;fontSize=12;fontColor=default;" edge="1" parent="1" source="Kdk6xQ8fdx2JmgkRFjxR-68" target="Kdk6xQ8fdx2JmgkRFjxR-70">
          <mxGeometry relative="1" as="geometry" />
        </mxCell>
        <mxCell id="Kdk6xQ8fdx2JmgkRFjxR-80" style="edgeStyle=orthogonalEdgeStyle;rounded=0;orthogonalLoop=1;jettySize=auto;html=1;exitX=0.5;exitY=1;exitDx=0;exitDy=0;entryX=0.5;entryY=0;entryDx=0;entryDy=0;fontFamily=Helvetica;fontSize=12;fontColor=default;" edge="1" parent="1" source="Kdk6xQ8fdx2JmgkRFjxR-68" target="Kdk6xQ8fdx2JmgkRFjxR-72">
          <mxGeometry relative="1" as="geometry" />
        </mxCell>
        <mxCell id="Kdk6xQ8fdx2JmgkRFjxR-81" style="edgeStyle=orthogonalEdgeStyle;rounded=0;orthogonalLoop=1;jettySize=auto;html=1;exitX=0.5;exitY=1;exitDx=0;exitDy=0;entryX=0.5;entryY=0;entryDx=0;entryDy=0;fontFamily=Helvetica;fontSize=12;fontColor=default;" edge="1" parent="1" source="Kdk6xQ8fdx2JmgkRFjxR-68" target="Kdk6xQ8fdx2JmgkRFjxR-77">
          <mxGeometry relative="1" as="geometry" />
        </mxCell>
        <mxCell id="Kdk6xQ8fdx2JmgkRFjxR-68" value="Prim2" style="rounded=1;whiteSpace=wrap;html=1;fillColor=#d5e8d4;strokeColor=#82b366;" vertex="1" parent="1">
          <mxGeometry x="510" y="720" width="40" height="40" as="geometry" />
        </mxCell>
        <mxCell id="Kdk6xQ8fdx2JmgkRFjxR-70" value="&quot;-&quot;" style="rounded=1;whiteSpace=wrap;html=1;fillColor=#f5f5f5;fontColor=#333333;strokeColor=#666666;" vertex="1" parent="1">
          <mxGeometry x="510" y="800" width="40" height="40" as="geometry" />
        </mxCell>
        <mxCell id="Kdk6xQ8fdx2JmgkRFjxR-71" style="edgeStyle=orthogonalEdgeStyle;rounded=0;orthogonalLoop=1;jettySize=auto;html=1;exitX=0.5;exitY=1;exitDx=0;exitDy=0;entryX=0.5;entryY=0;entryDx=0;entryDy=0;fontFamily=Helvetica;fontSize=12;fontColor=default;" edge="1" parent="1" source="Kdk6xQ8fdx2JmgkRFjxR-72" target="Kdk6xQ8fdx2JmgkRFjxR-74">
          <mxGeometry relative="1" as="geometry" />
        </mxCell>
        <mxCell id="Kdk6xQ8fdx2JmgkRFjxR-72" value="Access" style="rounded=1;whiteSpace=wrap;html=1;fillColor=#d5e8d4;strokeColor=#82b366;" vertex="1" parent="1">
          <mxGeometry x="570" y="800" width="80" height="40" as="geometry" />
        </mxCell>
        <mxCell id="Kdk6xQ8fdx2JmgkRFjxR-73" style="edgeStyle=orthogonalEdgeStyle;rounded=0;orthogonalLoop=1;jettySize=auto;html=1;exitX=0.5;exitY=1;exitDx=0;exitDy=0;entryX=0.5;entryY=0;entryDx=0;entryDy=0;fontFamily=Helvetica;fontSize=12;fontColor=default;" edge="1" parent="1" source="Kdk6xQ8fdx2JmgkRFjxR-74" target="Kdk6xQ8fdx2JmgkRFjxR-75">
          <mxGeometry relative="1" as="geometry" />
        </mxCell>
        <mxCell id="Kdk6xQ8fdx2JmgkRFjxR-74" value="AccVar" style="rounded=1;whiteSpace=wrap;html=1;" vertex="1" parent="1">
          <mxGeometry x="570" y="880" width="80" height="40" as="geometry" />
        </mxCell>
        <mxCell id="Kdk6xQ8fdx2JmgkRFjxR-75" value="&quot;n&quot;" style="rounded=1;whiteSpace=wrap;html=1;fillColor=#f5f5f5;fontColor=#333333;strokeColor=#666666;" vertex="1" parent="1">
          <mxGeometry x="590" y="960" width="40" height="40" as="geometry" />
        </mxCell>
        <mxCell id="Kdk6xQ8fdx2JmgkRFjxR-76" style="edgeStyle=orthogonalEdgeStyle;rounded=0;orthogonalLoop=1;jettySize=auto;html=1;exitX=0.5;exitY=1;exitDx=0;exitDy=0;entryX=0.5;entryY=0;entryDx=0;entryDy=0;fontFamily=Helvetica;fontSize=12;fontColor=default;" edge="1" parent="1" source="Kdk6xQ8fdx2JmgkRFjxR-77" target="Kdk6xQ8fdx2JmgkRFjxR-78">
          <mxGeometry relative="1" as="geometry" />
        </mxCell>
        <mxCell id="Kdk6xQ8fdx2JmgkRFjxR-77" value="CstI" style="rounded=1;whiteSpace=wrap;html=1;fillColor=#d5e8d4;strokeColor=#82b366;" vertex="1" parent="1">
          <mxGeometry x="670" y="800" width="40" height="40" as="geometry" />
        </mxCell>
        <mxCell id="Kdk6xQ8fdx2JmgkRFjxR-78" value="1" style="rounded=1;whiteSpace=wrap;html=1;fillColor=#f5f5f5;strokeColor=#666666;fontColor=#333333;" vertex="1" parent="1">
          <mxGeometry x="670" y="880" width="40" height="40" as="geometry" />
        </mxCell>
        <mxCell id="Kdk6xQ8fdx2JmgkRFjxR-91" style="edgeStyle=orthogonalEdgeStyle;rounded=0;orthogonalLoop=1;jettySize=auto;html=1;exitX=0.5;exitY=1;exitDx=0;exitDy=0;entryX=0.5;entryY=0;entryDx=0;entryDy=0;fontFamily=Helvetica;fontSize=12;fontColor=default;" edge="1" parent="1" source="Kdk6xQ8fdx2JmgkRFjxR-84" target="Kdk6xQ8fdx2JmgkRFjxR-85">
          <mxGeometry relative="1" as="geometry" />
        </mxCell>
        <mxCell id="Kdk6xQ8fdx2JmgkRFjxR-92" style="edgeStyle=orthogonalEdgeStyle;rounded=0;orthogonalLoop=1;jettySize=auto;html=1;exitX=0.5;exitY=1;exitDx=0;exitDy=0;entryX=0.5;entryY=0;entryDx=0;entryDy=0;fontFamily=Helvetica;fontSize=12;fontColor=default;" edge="1" parent="1" source="Kdk6xQ8fdx2JmgkRFjxR-84" target="Kdk6xQ8fdx2JmgkRFjxR-88">
          <mxGeometry relative="1" as="geometry" />
        </mxCell>
        <mxCell id="Kdk6xQ8fdx2JmgkRFjxR-84" value="Prim1" style="rounded=1;whiteSpace=wrap;html=1;fillColor=#d5e8d4;strokeColor=#82b366;" vertex="1" parent="1">
          <mxGeometry x="470" y="400" width="40" height="40" as="geometry" />
        </mxCell>
        <mxCell id="Kdk6xQ8fdx2JmgkRFjxR-85" value="&quot;printc&quot;" style="rounded=1;whiteSpace=wrap;html=1;fillColor=#f5f5f5;strokeColor=#666666;fontColor=#333333;" vertex="1" parent="1">
          <mxGeometry x="470" y="480" width="40" height="40" as="geometry" />
        </mxCell>
        <mxCell id="Kdk6xQ8fdx2JmgkRFjxR-87" style="edgeStyle=orthogonalEdgeStyle;rounded=0;orthogonalLoop=1;jettySize=auto;html=1;exitX=0.5;exitY=1;exitDx=0;exitDy=0;entryX=0.5;entryY=0;entryDx=0;entryDy=0;fontFamily=Helvetica;fontSize=12;fontColor=default;" edge="1" parent="1" source="Kdk6xQ8fdx2JmgkRFjxR-88" target="Kdk6xQ8fdx2JmgkRFjxR-89">
          <mxGeometry relative="1" as="geometry" />
        </mxCell>
        <mxCell id="Kdk6xQ8fdx2JmgkRFjxR-88" value="CstI" style="rounded=1;whiteSpace=wrap;html=1;fillColor=#d5e8d4;strokeColor=#82b366;" vertex="1" parent="1">
          <mxGeometry x="530" y="480" width="40" height="40" as="geometry" />
        </mxCell>
        <mxCell id="Kdk6xQ8fdx2JmgkRFjxR-89" value="10" style="rounded=1;whiteSpace=wrap;html=1;fillColor=#f5f5f5;strokeColor=#666666;fontColor=#333333;" vertex="1" parent="1">
          <mxGeometry x="530" y="560" width="40" height="40" as="geometry" />
        </mxCell>
      </root>
    </mxGraphModel>
  </diagram>
</mxfile>
